<svg id="Layer_1" data-name="Layer 1" xmlns="http://www.w3.org/2000/svg" viewBox="0 0 512 512"><defs><style>.cls-1{fill:#141f38;}</style></defs><title>text-glyph</title><path class="cls-1" d="M307.34,0H115.2a64,64,0,0,0-64,64V448a64,64,0,0,0,64,64H396.8a64,64,0,0,0,64-64V153.6ZM166.4,268.8h76.8a12.8,12.8,0,0,1,0,25.6H166.4a12.8,12.8,0,0,1,0-25.6Zm179.2,128H166.4a12.8,12.8,0,1,1,0-25.6H345.6a12.8,12.8,0,0,1,0,25.6Zm0-51.2H166.4a12.8,12.8,0,0,1,0-25.6H345.6a12.8,12.8,0,0,1,0,25.6Zm12.8-179.2a64,64,0,0,1-64-64V25.6L435.2,166.4Z"/></svg>